<?xml version="1.0" encoding="UTF-8" standalone="no"?>
<!-- Uploaded to: SVG Repo, www.svgrepo.com, Generator: SVG Repo Mixer Tools -->

<svg
   fill="#000000"
   version="1.1"
   id="Capa_1"
   width="190.39995"
   height="177.29655"
   viewBox="0 0 117.90469 109.79045"
   xml:space="preserve"
   sodipodi:docname="home.svg"
   inkscape:version="1.2.2 (b0a8486541, 2022-12-01)"
   xmlns:inkscape="http://www.inkscape.org/namespaces/inkscape"
   xmlns:sodipodi="http://sodipodi.sourceforge.net/DTD/sodipodi-0.dtd"
   xmlns="http://www.w3.org/2000/svg"
   xmlns:svg="http://www.w3.org/2000/svg"><defs
   id="defs291" /><sodipodi:namedview
   id="namedview289"
   pagecolor="#ffffff"
   bordercolor="#000000"
   borderopacity="0.25"
   inkscape:showpageshadow="2"
   inkscape:pageopacity="0.0"
   inkscape:pagecheckerboard="0"
   inkscape:deskcolor="#d1d1d1"
   showgrid="false"
   inkscape:zoom="0.295"
   inkscape:cx="-442.37288"
   inkscape:cy="93.220339"
   inkscape:window-width="1410"
   inkscape:window-height="860"
   inkscape:window-x="0"
   inkscape:window-y="0"
   inkscape:window-maximized="1"
   inkscape:current-layer="g282" />
<g
   id="g286"
   transform="translate(-188.74709,-192.80358)">
	<g
   id="g284">
		<g
   id="g282">
			<path
   d="m 304.67272,242.41882 -17.86904,-17.86904 v -20.64174 c 0,-3.73232 -3.0245,-6.75706 -6.76229,-6.75706 -3.72922,0 -6.75373,3.02474 -6.75373,6.75706 v 7.12596 l -13.30491,-13.30539 c -6.57808,-6.57451 -18.01517,-6.56285 -24.57826,0.0119 l -44.67926,44.67831 c -2.63752,2.64275 -2.63752,6.9189 0,9.5576 2.6387,2.64204 6.92318,2.64204 9.56093,0 l 44.67498,-44.6795 c 1.45537,-1.44775 4.02054,-1.44775 5.46829,-0.004 l 44.6826,44.68378 c 1.32494,1.32114 3.05235,1.97826 4.77927,1.97826 1.7305,0 3.46076,-0.65783 4.78166,-1.97826 2.63847,-2.63846 2.63847,-6.91461 -2.4e-4,-9.5576 z"
   id="path278"
   style="fill:#f39200;fill-opacity:1;stroke-width:0.238" />
			<path
   d="m 250.04649,220.12346 c -1.29805,-1.29734 -3.39983,-1.29734 -4.69408,0 l -39.29998,39.28832 c -0.62047,0.62023 -0.97223,1.46703 -0.97223,2.35073 v 28.65544 c 0,6.72421 5.4521,12.17608 12.17608,12.17608 h 19.45745 v -30.13318 h 21.96716 v 30.13318 h 19.45769 c 6.72374,0 12.17584,-5.45187 12.17584,-12.17585 v -28.65567 c 0,-0.8837 -0.34867,-1.7305 -0.97223,-2.35073 z"
   id="path280"
   style="fill:#f39200;fill-opacity:1;stroke-width:0.238" />
		</g>
	</g>
</g>
</svg>
