<?xml version="1.0" encoding="UTF-8" standalone="no"?>
<svg
   version="1.1"
   viewBox="0 0 128.69764 50.84258"
   fill="none"
   stroke="none"
   stroke-linecap="square"
   stroke-miterlimit="10"
   id="svg49"
   sodipodi:docname="san-diego-data-science-llc-logo-crop.svg"
   width="128.69763"
   height="50.842579"
   inkscape:version="1.2.2 (b0a8486541, 2022-12-01)"
   inkscape:export-filename="san diego data science llc logo crop.png"
   inkscape:export-xdpi="96"
   inkscape:export-ydpi="96"
   xmlns:inkscape="http://www.inkscape.org/namespaces/inkscape"
   xmlns:sodipodi="http://sodipodi.sourceforge.net/DTD/sodipodi-0.dtd"
   xmlns="http://www.w3.org/2000/svg"
   xmlns:svg="http://www.w3.org/2000/svg">
  <defs
     id="defs53">
    <clipPath
       clipPathUnits="userSpaceOnUse"
       id="clipPath1160">
      <rect
         style="opacity:0.96;fill:none"
         id="rect1162"
         width="375.14767"
         height="151.33989"
         x="156.99826"
         y="165.68777" />
    </clipPath>
    <clipPath
       clipPathUnits="userSpaceOnUse"
       id="clipPath1164">
      <rect
         style="opacity:0.96;fill:none"
         id="rect1166"
         width="375.14767"
         height="151.33989"
         x="156.99826"
         y="165.68777" />
    </clipPath>
    <clipPath
       clipPathUnits="userSpaceOnUse"
       id="clipPath1168">
      <rect
         style="opacity:0.96;fill:none"
         id="rect1170"
         width="375.14767"
         height="151.33989"
         x="156.99826"
         y="165.68777" />
    </clipPath>
    <clipPath
       clipPathUnits="userSpaceOnUse"
       id="clipPath1172">
      <rect
         style="opacity:0.96;fill:none"
         id="rect1174"
         width="375.14767"
         height="151.33989"
         x="156.99826"
         y="165.68777" />
    </clipPath>
    <clipPath
       clipPathUnits="userSpaceOnUse"
       id="clipPath1176">
      <rect
         style="opacity:0.96;fill:none"
         id="rect1178"
         width="375.14767"
         height="151.33989"
         x="156.99826"
         y="165.68777" />
    </clipPath>
    <clipPath
       clipPathUnits="userSpaceOnUse"
       id="clipPath1180">
      <rect
         style="opacity:0.96;fill:none"
         id="rect1182"
         width="375.14767"
         height="151.33989"
         x="156.99826"
         y="165.68777" />
    </clipPath>
    <clipPath
       clipPathUnits="userSpaceOnUse"
       id="clipPath1184">
      <rect
         style="opacity:0.96;fill:none"
         id="rect1186"
         width="375.14767"
         height="151.33989"
         x="156.99826"
         y="165.68777" />
    </clipPath>
    <clipPath
       clipPathUnits="userSpaceOnUse"
       id="clipPath1188">
      <rect
         style="opacity:0.96;fill:none"
         id="rect1190"
         width="375.14767"
         height="151.33989"
         x="156.99826"
         y="165.68777" />
    </clipPath>
    <clipPath
       clipPathUnits="userSpaceOnUse"
       id="clipPath1192">
      <rect
         style="opacity:0.96;fill:none"
         id="rect1194"
         width="375.14767"
         height="151.33989"
         x="156.99826"
         y="165.68777" />
    </clipPath>
    <clipPath
       clipPathUnits="userSpaceOnUse"
       id="clipPath1196">
      <rect
         style="opacity:0.96;fill:none"
         id="rect1198"
         width="375.14767"
         height="151.33989"
         x="156.99826"
         y="165.68777" />
    </clipPath>
    <clipPath
       clipPathUnits="userSpaceOnUse"
       id="clipPath1200">
      <rect
         style="opacity:0.96;fill:none"
         id="rect1202"
         width="375.14767"
         height="151.33989"
         x="156.99826"
         y="165.68777" />
    </clipPath>
    <clipPath
       clipPathUnits="userSpaceOnUse"
       id="clipPath1204">
      <rect
         style="opacity:0.96;fill:none"
         id="rect1206"
         width="375.14767"
         height="151.33989"
         x="156.99826"
         y="165.68777" />
    </clipPath>
    <clipPath
       clipPathUnits="userSpaceOnUse"
       id="clipPath1208">
      <rect
         style="opacity:0.96;fill:none"
         id="rect1210"
         width="375.14767"
         height="151.33989"
         x="156.99826"
         y="165.68777" />
    </clipPath>
    <clipPath
       clipPathUnits="userSpaceOnUse"
       id="clipPath1212">
      <rect
         style="opacity:0.96;fill:none"
         id="rect1214"
         width="375.14767"
         height="151.33989"
         x="156.99826"
         y="165.68777" />
    </clipPath>
    <clipPath
       clipPathUnits="userSpaceOnUse"
       id="clipPath1216">
      <rect
         style="opacity:0.96;fill:none"
         id="rect1218"
         width="375.14767"
         height="151.33989"
         x="156.99826"
         y="165.68777" />
    </clipPath>
    <clipPath
       clipPathUnits="userSpaceOnUse"
       id="clipPath1220">
      <rect
         style="opacity:0.96;fill:none"
         id="rect1222"
         width="375.14767"
         height="151.33989"
         x="156.99826"
         y="165.68777" />
    </clipPath>
    <clipPath
       clipPathUnits="userSpaceOnUse"
       id="clipPath1224">
      <rect
         style="opacity:0.96;fill:none"
         id="rect1226"
         width="375.14767"
         height="151.33989"
         x="156.99826"
         y="165.68777" />
    </clipPath>
    <clipPath
       clipPathUnits="userSpaceOnUse"
       id="clipPath1228">
      <rect
         style="opacity:0.96;fill:none"
         id="rect1230"
         width="375.14767"
         height="151.33989"
         x="156.99826"
         y="165.68777" />
    </clipPath>
  </defs>
  <sodipodi:namedview
     id="namedview51"
     pagecolor="#ffffff"
     bordercolor="#000000"
     borderopacity="0.25"
     inkscape:showpageshadow="2"
     inkscape:pageopacity="0.0"
     inkscape:pagecheckerboard="0"
     inkscape:deskcolor="#d1d1d1"
     showgrid="false"
     inkscape:zoom="1.1314815"
     inkscape:cx="66.726676"
     inkscape:cy="-20.76923"
     inkscape:window-width="1410"
     inkscape:window-height="860"
     inkscape:window-x="0"
     inkscape:window-y="0"
     inkscape:window-maximized="1"
     inkscape:current-layer="g47" />
  <clipPath
     id="g2e03c82a1ed_0_0.0">
    <path
       d="M 0,0 H 960 V 540 H 0 Z"
       clip-rule="nonzero"
       id="path2" />
  </clipPath>
  <g
     clip-path="url(#g2e03c82a1ed_0_0.0)"
     id="g47"
     transform="translate(-336.96856,-251.64245)">
    <path
       fill="#000000"
       fill-opacity="0"
       d="m 263.72833,196.34251 h 720 v 192.31496 h -720 z"
       fill-rule="evenodd"
       id="path7" />
    <path
       fill="#ffffff"
       d="m 286.72833,215.34251 h 166.93286 v 36.8 H 286.72833 Z"
       fill-rule="nonzero"
       id="path9"
       clip-path="url(#clipPath1228)"
       sodipodi:nodetypes="ccccc"
       style="fill:none"
       transform="matrix(0.5,0,0,0.5,209.59322,149.9712)" />
    <path
       fill="#000000"
       fill-opacity="0"
       d="m 286.72833,217.03023 h 166.93286 v 35.25169 H 286.72833 Z"
       fill-rule="nonzero"
       id="path11"
       clip-path="url(#clipPath1224)"
       sodipodi:nodetypes="ccccc"
       transform="matrix(0.5,0,0,0.5,209.59322,149.9712)" />
    <path
       fill="#000000"
       d="m 304.87228,237.64189 4.3125,-0.42188 c 0.26041,1.44792 0.78645,2.51042 1.57812,3.1875 0.79167,0.67709 1.85938,1.01563 3.20313,1.01563 1.42708,0 2.5,-0.30208 3.21875,-0.90625 0.72917,-0.60417 1.09375,-1.30729 1.09375,-2.10938 0,-0.52083 -0.15104,-0.96354 -0.45313,-1.32812 -0.30208,-0.36459 -0.83333,-0.6823 -1.59375,-0.95313 -0.52083,-0.17708 -1.70312,-0.49479 -3.54687,-0.95312 -2.375,-0.59375 -4.04167,-1.31771 -5,-2.17188 -1.34375,-1.20833 -2.01563,-2.68229 -2.01563,-4.42187 0,-1.11459 0.3125,-2.15625 0.9375,-3.125 0.63542,-0.97917 1.54688,-1.71875 2.73438,-2.21875 1.19791,-0.51042 2.64062,-0.76563 4.32812,-0.76563 2.76042,0 4.83334,0.60417 6.21875,1.8125 1.39583,1.19792 2.13021,2.8073 2.20313,4.82813 l -4.4375,0.1875 c -0.1875,-1.125 -0.59375,-1.93229 -1.21875,-2.42188 -0.625,-0.5 -1.5625,-0.75 -2.8125,-0.75 -1.28125,0 -2.28646,0.26563 -3.01563,0.79688 -0.46875,0.34375 -0.70312,0.79687 -0.70312,1.35937 0,0.52083 0.21875,0.96875 0.65625,1.34375 0.5625,0.46875 1.91667,0.95834 4.0625,1.46875 2.15625,0.5 3.75,1.02604 4.78125,1.57813 1.04167,0.54167 1.85417,1.28646 2.4375,2.23437 0.58333,0.9375 0.875,2.09896 0.875,3.48438 0,1.26041 -0.34896,2.4375 -1.04688,3.53125 -0.69791,1.09375 -1.6875,1.91145 -2.96875,2.45312 -1.28125,0.53125 -2.875,0.79688 -4.78125,0.79688 -2.77083,0 -4.90104,-0.64063 -6.39062,-1.92188 -1.47917,-1.28125 -2.36458,-3.15104 -2.65625,-5.60937 z m 24.68185,-3.90625 -3.8125,-0.6875 c 0.42709,-1.54167 1.16146,-2.67708 2.20313,-3.40625 1.05208,-0.73959 2.60937,-1.10938 4.67187,-1.10938 1.88542,0 3.28646,0.22396 4.20313,0.67188 0.91667,0.4375 1.5625,1 1.9375,1.6875 0.375,0.67708 0.5625,1.92708 0.5625,3.75 l -0.0469,4.92187 c 0,1.39583 0.0677,2.42708 0.20313,3.09375 0.13541,0.65625 0.38541,1.36459 0.75,2.125 h -4.15625 c -0.11459,-0.28125 -0.25,-0.69791 -0.40625,-1.25 -0.0729,-0.23958 -0.125,-0.40104 -0.15625,-0.48437 -0.71875,0.69791 -1.48959,1.22395 -2.3125,1.57812 -0.8125,0.34375 -1.68229,0.51563 -2.60938,0.51563 -1.63541,0 -2.92708,-0.44271 -3.875,-1.32813 -0.9375,-0.89583 -1.40625,-2.02083 -1.40625,-3.375 0,-0.89583 0.21354,-1.69271 0.64063,-2.39062 0.42708,-0.70833 1.02604,-1.25 1.79687,-1.625 0.78125,-0.375 1.90105,-0.70313 3.35938,-0.98438 1.95833,-0.36458 3.31771,-0.70833 4.07812,-1.03125 v -0.42187 c 0,-0.80209 -0.19792,-1.375 -0.59375,-1.71875 -0.39583,-0.34375 -1.15104,-0.51563 -2.26562,-0.51563 -0.75,0 -1.33333,0.14583 -1.75,0.4375 -0.41667,0.29167 -0.75521,0.80729 -1.01563,1.54688 z m 5.625,3.40625 c -0.54167,0.1875 -1.39583,0.40625 -2.5625,0.65625 -1.16667,0.25 -1.92708,0.49479 -2.28125,0.73437 -0.55208,0.38542 -0.82812,0.875 -0.82812,1.46875 0,0.59375 0.21875,1.10417 0.65625,1.53125 0.4375,0.42709 1,0.64063 1.6875,0.64063 0.75,0 1.46875,-0.25 2.15625,-0.75 0.51041,-0.375 0.84895,-0.83854 1.01562,-1.39063 0.10417,-0.35417 0.15625,-1.03646 0.15625,-2.04687 z m 22.73706,7.64062 h -4.20312 v -8.10937 c 0,-1.71875 -0.0885,-2.82813 -0.26563,-3.32813 -0.17708,-0.51041 -0.46875,-0.90104 -0.875,-1.17187 -0.40625,-0.28125 -0.89583,-0.42188 -1.46875,-0.42188 -0.72917,0 -1.38542,0.19792 -1.96875,0.59375 -0.57291,0.39583 -0.96875,0.92708 -1.1875,1.59375 -0.20833,0.65625 -0.3125,1.8698 -0.3125,3.64063 v 7.20312 h -4.20312 v -15.89062 h 3.90625 v 2.32812 c 1.38541,-1.79167 3.1302,-2.6875 5.23437,-2.6875 0.92709,0 1.77605,0.16667 2.54688,0.5 0.77083,0.33333 1.35417,0.76042 1.75,1.28125 0.39583,0.51042 0.66667,1.09896 0.8125,1.76563 0.15625,0.65625 0.23437,1.59895 0.23437,2.82812 z m 12.80585,-21.9375 h 8.09375 c 1.82292,0 3.21355,0.13542 4.17188,0.40625 1.29167,0.38542 2.39583,1.0625 3.3125,2.03125 0.91667,0.96875 1.61458,2.15625 2.09375,3.5625 0.47917,1.39583 0.71875,3.11979 0.71875,5.17188 0,1.8125 -0.22396,3.36979 -0.67188,4.67187 -0.55208,1.59375 -1.33333,2.88542 -2.34375,3.875 -0.77083,0.75 -1.8125,1.33333 -3.125,1.75 -0.96875,0.3125 -2.27604,0.46875 -3.92187,0.46875 h -8.32813 z m 4.42188,3.70313 v 14.53125 h 3.3125 c 1.23958,0 2.13541,-0.0677 2.6875,-0.20313 0.71875,-0.17708 1.3125,-0.47916 1.78125,-0.90625 0.47917,-0.4375 0.86458,-1.14583 1.15625,-2.125 0.30208,-0.97917 0.45312,-2.31771 0.45312,-4.01562 0,-1.69792 -0.15104,-3 -0.45312,-3.90625 -0.29167,-0.90625 -0.70833,-1.61459 -1.25,-2.125 -0.54167,-0.51042 -1.22396,-0.85417 -2.04688,-1.03125 -0.625,-0.14583 -1.83854,-0.21875 -3.64062,-0.21875 z m 17.70144,0.1875 v -3.89063 h 4.20313 v 3.89063 z m 0,18.04687 v -15.89062 h 4.20313 v 15.89062 z m 17.72043,-5.0625 4.1875,0.70313 c -0.53125,1.54167 -1.3802,2.71354 -2.54687,3.51562 -1.16667,0.80209 -2.61979,1.20313 -4.35938,1.20313 -2.77083,0 -4.81771,-0.90104 -6.14062,-2.70313 -1.05209,-1.44791 -1.57813,-3.27604 -1.57813,-5.48437 0,-2.63542 0.6875,-4.69792 2.0625,-6.1875 1.38542,-1.48959 3.13021,-2.23438 5.23438,-2.23438 2.36458,0 4.22916,0.78125 5.59375,2.34375 1.36458,1.55209 2.02083,3.94271 1.96875,7.17188 h -10.54688 c 0.0313,1.25 0.36981,2.22396 1.01563,2.92187 0.65625,0.6875 1.46875,1.03125 2.4375,1.03125 0.65625,0 1.20833,-0.17708 1.65625,-0.53125 0.44791,-0.36458 0.78645,-0.94791 1.01562,-1.75 z m 0.23438,-4.25 c -0.0313,-1.21875 -0.34898,-2.14062 -0.95313,-2.76562 -0.59375,-0.63542 -1.3177,-0.95313 -2.17187,-0.95313 -0.91667,0 -1.67708,0.33333 -2.28125,1 -0.59375,0.66667 -0.88542,1.57292 -0.875,2.71875 z m 7.2214,10.35938 4.79688,0.57812 c 0.0833,0.5625 0.27083,0.94792 0.5625,1.15625 0.39583,0.30209 1.02604,0.45313 1.89062,0.45313 1.09375,0 1.91667,-0.16667 2.46875,-0.5 0.36459,-0.21875 0.64063,-0.57292 0.82813,-1.0625 0.13541,-0.34375 0.20312,-0.98438 0.20312,-1.92188 v -2.32812 c -1.26041,1.71875 -2.84895,2.57812 -4.76562,2.57812 -2.13542,0 -3.82813,-0.90104 -5.07813,-2.70312 -0.97917,-1.42709 -1.46875,-3.20313 -1.46875,-5.32813 0,-2.66667 0.64063,-4.70312 1.92188,-6.10937 1.29167,-1.40625 2.89062,-2.10938 4.79687,-2.10938 1.95833,0 3.57813,0.85938 4.85938,2.57813 v -2.21875 h 3.9375 v 14.26562 c 0,1.875 -0.15625,3.27604 -0.46875,4.20313 -0.30209,0.92708 -0.73438,1.65104 -1.29688,2.17187 -0.5625,0.53125 -1.3125,0.94792 -2.25,1.25 -0.92708,0.30209 -2.10416,0.45313 -3.53125,0.45313 -2.69791,0 -4.60937,-0.46354 -5.73437,-1.39063 -1.125,-0.91667 -1.6875,-2.08333 -1.6875,-3.5 0,-0.14583 -0.18259,-0.51562 0.0156,-0.51562 z m 3.75,-9.32813 c 0,1.6875 0.32813,2.92708 0.98438,3.71875 0.65625,0.78125 1.46354,1.17188 2.42187,1.17188 1.03125,0 1.90105,-0.40104 2.60938,-1.20313 0.70833,-0.8125 1.0625,-2.00521 1.0625,-3.57812 0,-1.64583 -0.34375,-2.86458 -1.03125,-3.65625 -0.67709,-0.80209 -1.53125,-1.20313 -2.5625,-1.20313 -1.01042,0 -1.84375,0.39063 -2.5,1.17188 -0.65625,0.78125 -0.98438,1.97395 -0.98438,3.57812 z m 14.39795,0.10938 c 0,-1.39583 0.34375,-2.74479 1.03125,-4.04688 0.6875,-1.3125 1.66146,-2.3125 2.92187,-3 1.26042,-0.6875 2.67188,-1.03125 4.23438,-1.03125 2.39583,0 4.36458,0.78125 5.90625,2.34375 1.54167,1.55209 2.3125,3.52084 2.3125,5.90625 0,2.40625 -0.77604,4.40105 -2.32813,5.98438 -1.55208,1.58333 -3.5052,2.375 -5.85937,2.375 -1.45833,0 -2.84896,-0.32813 -4.17188,-0.98438 -1.32291,-0.65625 -2.32812,-1.61979 -3.01562,-2.89062 -0.6875,-1.28125 -1.03125,-2.83334 -1.03125,-4.65625 z m 4.29687,0.21875 c 0,1.58333 0.375,2.79687 1.125,3.64062 0.75,0.83333 1.67708,1.25 2.78125,1.25 1.09375,0 2.01042,-0.41667 2.75,-1.25 0.75,-0.84375 1.125,-2.0677 1.125,-3.67187 0,-1.55209 -0.375,-2.7448 -1.125,-3.57813 -0.73958,-0.84375 -1.65625,-1.26562 -2.75,-1.26562 -1.10417,0 -2.03125,0.42187 -2.78125,1.26562 -0.75,0.83333 -1.125,2.03646 -1.125,3.60938 z"
       fill-rule="nonzero"
       id="path13"
       clip-path="url(#clipPath1220)"
       sodipodi:nodetypes="ccsscsscccsccsccccscsccccsscscccccsccccccccccscsccccsssscccscsssccscccsccsccscccccssccsccscscscccsccccscccscscscccccccccccccsscscsccccsccccsccccccsccscscscscccscccscsscscscscsssscsscsssscsscscscscs"
       transform="matrix(0.5,0,0,0.5,209.59322,149.9712)" />
    <path
       fill="#000000"
       fill-opacity="0"
       d="m 453.6612,217.03023 v 0 35.25169 0 z"
       fill-rule="nonzero"
       id="path15"
       clip-path="url(#clipPath1216)"
       sodipodi:nodetypes="ccccc"
       transform="matrix(0.5,0,0,0.5,209.59322,149.9712)" />
    <path
       fill="#000000"
       fill-opacity="0"
       d="m 286.72833,284.23022 v 0 35.25171 0 z"
       fill-rule="nonzero"
       id="path17"
       clip-path="url(#clipPath1212)"
       sodipodi:nodetypes="ccccc"
       transform="matrix(0.5,0,0,0.5,209.59322,149.9712)" />
    <path
       fill="#000000"
       fill-opacity="0"
       d="M 274.75067,242.50131 H 589.7113 v 56.56692 H 274.75067 Z"
       fill-rule="evenodd"
       id="path19"
       clip-path="url(#clipPath1208)"
       sodipodi:nodetypes="ccccc"
       transform="matrix(0.5,0,0,0.5,209.59322,149.9712)" />
    <path
       fill="#ffffff"
       d="M 283.75067,251.50131 H 474.60379 V 288.3013 H 283.75067 Z"
       fill-rule="nonzero"
       id="path21"
       clip-path="url(#clipPath1204)"
       sodipodi:nodetypes="ccccc"
       style="fill:none"
       transform="matrix(0.5,0,0,0.5,209.59322,149.9712)" />
    <path
       fill="#000000"
       fill-opacity="0"
       d="m 283.75067,253.18903 h 190.85312 v 35.25168 H 283.75067 Z"
       fill-rule="nonzero"
       id="path23"
       clip-path="url(#clipPath1200)"
       sodipodi:nodetypes="ccccc"
       transform="matrix(0.5,0,0,0.5,209.59322,149.9712)" />
    <path
       fill="#000000"
       d="m 285.96942,259.00381 h 8.09375 c 1.82292,0 3.21355,0.13542 4.17188,0.40625 1.29167,0.38541 2.39583,1.0625 3.3125,2.03125 0.91667,0.96875 1.61458,2.15625 2.09375,3.5625 0.47917,1.39583 0.71875,3.11979 0.71875,5.17187 0,1.8125 -0.22396,3.36979 -0.67188,4.67188 -0.55208,1.59375 -1.33333,2.88541 -2.34375,3.875 -0.77083,0.75 -1.8125,1.33333 -3.125,1.75 -0.96875,0.3125 -2.27604,0.46875 -3.92187,0.46875 h -8.32813 z m 4.42188,3.70312 v 14.53125 h 3.3125 c 1.23958,0 2.13541,-0.0677 2.6875,-0.20312 0.71875,-0.17709 1.3125,-0.47917 1.78125,-0.90625 0.47917,-0.4375 0.86458,-1.14583 1.15625,-2.125 0.30208,-0.97917 0.45312,-2.31771 0.45312,-4.01563 0,-1.69791 -0.15104,-3 -0.45312,-3.90625 -0.29167,-0.90625 -0.70833,-1.61458 -1.25,-2.125 -0.54167,-0.51041 -1.22396,-0.85416 -2.04688,-1.03125 -0.625,-0.14583 -1.83854,-0.21875 -3.64062,-0.21875 z m 20.84207,7.1875 -3.8125,-0.6875 c 0.42708,-1.54167 1.16145,-2.67708 2.20312,-3.40625 1.05209,-0.73958 2.60938,-1.10937 4.67188,-1.10937 1.88541,0 3.28645,0.22396 4.20312,0.67187 0.91667,0.4375 1.5625,1 1.9375,1.6875 0.375,0.67709 0.5625,1.92709 0.5625,3.75 l -0.0469,4.92188 c 0,1.39583 0.0677,2.42708 0.20312,3.09375 0.13542,0.65625 0.38542,1.36458 0.75,2.125 h -4.15625 c -0.11458,-0.28125 -0.25,-0.69792 -0.40625,-1.25 -0.0729,-0.23959 -0.125,-0.40105 -0.15625,-0.48438 -0.71875,0.69792 -1.48958,1.22396 -2.3125,1.57813 -0.8125,0.34375 -1.68229,0.51562 -2.60937,0.51562 -1.63542,0 -2.92709,-0.44271 -3.875,-1.32812 -0.9375,-0.89583 -1.40625,-2.02083 -1.40625,-3.375 0,-0.89583 0.21354,-1.69271 0.64062,-2.39063 0.42709,-0.70833 1.02605,-1.25 1.79688,-1.625 0.78125,-0.375 1.90104,-0.70312 3.35937,-0.98437 1.95833,-0.36459 3.31771,-0.70834 4.07813,-1.03125 v -0.42188 c 0,-0.80208 -0.19792,-1.375 -0.59375,-1.71875 -0.39583,-0.34375 -1.15104,-0.51562 -2.26563,-0.51562 -0.75,0 -1.33333,0.14583 -1.75,0.4375 -0.41667,0.29167 -0.75521,0.80729 -1.01562,1.54687 z m 5.625,3.40625 c -0.54167,0.1875 -1.39583,0.40625 -2.5625,0.65625 -1.16667,0.25 -1.92708,0.49479 -2.28125,0.73438 -0.55209,0.38541 -0.82813,0.875 -0.82813,1.46875 0,0.59375 0.21875,1.10416 0.65625,1.53125 0.4375,0.42708 1,0.64062 1.6875,0.64062 0.75,0 1.46875,-0.25 2.15625,-0.75 0.51042,-0.375 0.84896,-0.83854 1.01563,-1.39062 0.10417,-0.35417 0.15625,-1.03646 0.15625,-2.04688 z m 15.56518,-8.25 v 3.34375 h -2.875 v 6.40625 c 0,1.30209 0.026,2.0625 0.0781,2.28125 0.0625,0.20833 0.18747,0.38542 0.375,0.53125 0.19791,0.13542 0.4375,0.20313 0.71875,0.20313 0.39583,0 0.95833,-0.13542 1.6875,-0.40625 l 0.35937,3.26562 c -0.96875,0.41667 -2.07291,0.625 -3.3125,0.625 -0.76041,0 -1.44791,-0.125 -2.0625,-0.375 -0.60417,-0.26041 -1.05208,-0.58854 -1.34375,-0.98437 -0.28125,-0.40625 -0.47395,-0.95834 -0.57812,-1.65625 -0.0937,-0.48959 -0.14063,-1.47396 -0.14063,-2.95313 v -6.9375 h -1.92187 v -3.34375 h 1.92187 v -3.17187 l 4.21875,-2.45313 v 5.625 z m 6.06815,4.84375 -3.8125,-0.6875 c 0.42708,-1.54167 1.16145,-2.67708 2.20312,-3.40625 1.05209,-0.73958 2.60938,-1.10937 4.67188,-1.10937 1.88541,0 3.28645,0.22396 4.20312,0.67187 0.91667,0.4375 1.5625,1 1.9375,1.6875 0.375,0.67709 0.5625,1.92709 0.5625,3.75 l -0.0469,4.92188 c 0,1.39583 0.0677,2.42708 0.20312,3.09375 0.13542,0.65625 0.38542,1.36458 0.75,2.125 h -4.15625 c -0.11458,-0.28125 -0.25,-0.69792 -0.40625,-1.25 -0.0729,-0.23959 -0.125,-0.40105 -0.15625,-0.48438 -0.71875,0.69792 -1.48958,1.22396 -2.3125,1.57813 -0.8125,0.34375 -1.68229,0.51562 -2.60937,0.51562 -1.63542,0 -2.92709,-0.44271 -3.875,-1.32812 -0.9375,-0.89583 -1.40625,-2.02083 -1.40625,-3.375 0,-0.89583 0.21354,-1.69271 0.64062,-2.39063 0.42709,-0.70833 1.02605,-1.25 1.79688,-1.625 0.78125,-0.375 1.90104,-0.70312 3.35937,-0.98437 1.95833,-0.36459 3.31771,-0.70834 4.07813,-1.03125 v -0.42188 c 0,-0.80208 -0.19792,-1.375 -0.59375,-1.71875 -0.39583,-0.34375 -1.15104,-0.51562 -2.26563,-0.51562 -0.75,0 -1.33333,0.14583 -1.75,0.4375 -0.41667,0.29167 -0.75521,0.80729 -1.01562,1.54687 z m 5.625,3.40625 c -0.54167,0.1875 -1.39583,0.40625 -2.5625,0.65625 -1.16667,0.25 -1.92708,0.49479 -2.28125,0.73438 -0.55209,0.38541 -0.82813,0.875 -0.82813,1.46875 0,0.59375 0.21875,1.10416 0.65625,1.53125 0.4375,0.42708 1,0.64062 1.6875,0.64062 0.75,0 1.46875,-0.25 2.15625,-0.75 0.51042,-0.375 0.84896,-0.83854 1.01563,-1.39062 0.10417,-0.35417 0.15625,-1.03646 0.15625,-2.04688 z m 15.70746,0.5 4.3125,-0.42187 c 0.26041,1.44791 0.78645,2.51041 1.57812,3.1875 0.79167,0.67708 1.85938,1.01562 3.20313,1.01562 1.42708,0 2.5,-0.30208 3.21875,-0.90625 0.72917,-0.60417 1.09375,-1.30729 1.09375,-2.10937 0,-0.52083 -0.15104,-0.96354 -0.45313,-1.32813 -0.30208,-0.36458 -0.83333,-0.68229 -1.59375,-0.95312 -0.52083,-0.17709 -1.70312,-0.4948 -3.54687,-0.95313 -2.375,-0.59375 -4.04167,-1.3177 -5,-2.17187 -1.34375,-1.20833 -2.01563,-2.68229 -2.01563,-4.42188 0,-1.11458 0.3125,-2.15625 0.9375,-3.125 0.63542,-0.97917 1.54688,-1.71875 2.73438,-2.21875 1.19791,-0.51041 2.64062,-0.76562 4.32812,-0.76562 2.76042,0 4.83334,0.60417 6.21875,1.8125 1.39583,1.19791 2.13021,2.80729 2.20313,4.82812 l -4.4375,0.1875 c -0.1875,-1.125 -0.59375,-1.93229 -1.21875,-2.42187 -0.625,-0.5 -1.5625,-0.75 -2.8125,-0.75 -1.28125,0 -2.28646,0.26562 -3.01563,0.79687 -0.46875,0.34375 -0.70312,0.79688 -0.70312,1.35938 0,0.52083 0.21875,0.96875 0.65625,1.34375 0.5625,0.46875 1.91667,0.95833 4.0625,1.46875 2.15625,0.5 3.75,1.02604 4.78125,1.57812 1.04167,0.54167 1.85417,1.28646 2.4375,2.23438 0.58333,0.9375 0.875,2.09896 0.875,3.48437 0,1.26042 -0.34896,2.4375 -1.04688,3.53125 -0.69791,1.09375 -1.6875,1.91146 -2.96875,2.45313 -1.28125,0.53125 -2.875,0.79687 -4.78125,0.79687 -2.77083,0 -4.90104,-0.64062 -6.39062,-1.92187 -1.47917,-1.28125 -2.36458,-3.15105 -2.65625,-5.60938 z m 35.4006,-4.0625 -4.14062,0.75 c -0.14583,-0.82291 -0.46875,-1.4427 -0.96875,-1.85937 -0.48959,-0.42709 -1.125,-0.64063 -1.90625,-0.64063 -1.05209,0 -1.89063,0.36458 -2.51563,1.09375 -0.625,0.71875 -0.9375,1.92709 -0.9375,3.625 0,1.88542 0.31771,3.21875 0.95313,4 0.63541,0.78125 1.48437,1.17188 2.54687,1.17188 0.80209,0 1.45834,-0.22917 1.96875,-0.6875 0.51042,-0.45833 0.8698,-1.23958 1.07813,-2.34375 l 4.125,0.70312 c -0.42709,1.89583 -1.25,3.32813 -2.46875,4.29688 -1.21875,0.96875 -2.84896,1.45312 -4.89063,1.45312 -2.32291,0 -4.17708,-0.73437 -5.5625,-2.20312 -1.38541,-1.46875 -2.07812,-3.5 -2.07812,-6.09375 0,-2.625 0.69271,-4.66667 2.07812,-6.125 1.39583,-1.45833 3.27604,-2.1875 5.64063,-2.1875 1.9375,0 3.47396,0.41667 4.60937,1.25 1.14583,0.83333 1.96875,2.09896 2.46875,3.79687 z m 3.19016,-6.84375 v -3.89062 h 4.20312 v 3.89062 z m 0,18.04688 v -15.89063 h 4.20312 v 15.89063 z m 17.72042,-5.0625 4.1875,0.70312 c -0.53125,1.54167 -1.3802,2.71354 -2.54687,3.51563 -1.16667,0.80208 -2.61979,1.20312 -4.35938,1.20312 -2.77083,0 -4.81771,-0.90104 -6.14062,-2.70312 -1.05209,-1.44792 -1.57813,-3.27605 -1.57813,-5.48438 0,-2.63541 0.6875,-4.69791 2.0625,-6.1875 1.38542,-1.48958 3.13021,-2.23437 5.23438,-2.23437 2.36458,0 4.22916,0.78125 5.59375,2.34375 1.36458,1.55208 2.02083,3.9427 1.96875,7.17187 h -10.54688 c 0.0313,1.25 0.36981,2.22396 1.01563,2.92188 0.65625,0.6875 1.46875,1.03125 2.4375,1.03125 0.65625,0 1.20833,-0.17708 1.65625,-0.53125 0.44791,-0.36459 0.78645,-0.94792 1.01562,-1.75 z m 0.23438,-4.25 c -0.0313,-1.21875 -0.34898,-2.14063 -0.95313,-2.76563 -0.59375,-0.63541 -1.3177,-0.95312 -2.17187,-0.95312 -0.91667,0 -1.67708,0.33333 -2.28125,1 -0.59375,0.66667 -0.88542,1.57292 -0.875,2.71875 z m 22.06515,9.3125 h -4.20312 v -8.10938 c 0,-1.71875 -0.0885,-2.82812 -0.26563,-3.32812 -0.17708,-0.51042 -0.46875,-0.90105 -0.875,-1.17188 -0.40625,-0.28125 -0.89583,-0.42187 -1.46875,-0.42187 -0.72917,0 -1.38542,0.19792 -1.96875,0.59375 -0.57291,0.39583 -0.96875,0.92708 -1.1875,1.59375 -0.20833,0.65625 -0.3125,1.86979 -0.3125,3.64062 v 7.20313 h -4.20312 v -15.89063 h 3.90625 v 2.32813 c 1.38541,-1.79167 3.1302,-2.6875 5.23437,-2.6875 0.92709,0 1.77605,0.16667 2.54688,0.5 0.77083,0.33333 1.35417,0.76042 1.75,1.28125 0.39583,0.51041 0.66667,1.09895 0.8125,1.76562 0.15625,0.65625 0.23437,1.59896 0.23437,2.82813 z m 18.13233,-11.20313 -4.14063,0.75 c -0.14583,-0.82291 -0.46875,-1.4427 -0.96875,-1.85937 -0.48958,-0.42709 -1.125,-0.64063 -1.90625,-0.64063 -1.05208,0 -1.89062,0.36458 -2.51562,1.09375 -0.625,0.71875 -0.9375,1.92709 -0.9375,3.625 0,1.88542 0.31771,3.21875 0.95312,4 0.63542,0.78125 1.48438,1.17188 2.54688,1.17188 0.80208,0 1.45833,-0.22917 1.96875,-0.6875 0.51041,-0.45833 0.86979,-1.23958 1.07812,-2.34375 l 4.125,0.70312 c -0.42708,1.89583 -1.25,3.32813 -2.46875,4.29688 -1.21875,0.96875 -2.84895,1.45312 -4.89062,1.45312 -2.32292,0 -4.17709,-0.73437 -5.5625,-2.20312 -1.38542,-1.46875 -2.07813,-3.5 -2.07813,-6.09375 0,-2.625 0.69271,-4.66667 2.07813,-6.125 1.39583,-1.45833 3.27604,-2.1875 5.64062,-2.1875 1.9375,0 3.47396,0.41667 4.60938,1.25 1.14583,0.83333 1.96875,2.09896 2.46875,3.79687 z m 12.39328,6.14063 4.1875,0.70312 c -0.53125,1.54167 -1.38021,2.71354 -2.54688,3.51563 -1.16667,0.80208 -2.61979,1.20312 -4.35937,1.20312 -2.77083,0 -4.81771,-0.90104 -6.14063,-2.70312 -1.05208,-1.44792 -1.57812,-3.27605 -1.57812,-5.48438 0,-2.63541 0.6875,-4.69791 2.0625,-6.1875 1.38541,-1.48958 3.1302,-2.23437 5.23437,-2.23437 2.36459,0 4.22917,0.78125 5.59375,2.34375 1.36459,1.55208 2.02084,3.9427 1.96875,7.17187 h -10.54687 c 0.0313,1.25 0.36981,2.22396 1.01562,2.92188 0.65625,0.6875 1.46875,1.03125 2.4375,1.03125 0.65625,0 1.20834,-0.17708 1.65625,-0.53125 0.44792,-0.36459 0.78646,-0.94792 1.01563,-1.75 z m 0.23437,-4.25 c -0.0313,-1.21875 -0.34897,-2.14063 -0.95312,-2.76563 -0.59375,-0.63541 -1.31771,-0.95312 -2.17188,-0.95312 -0.91667,0 -1.67708,0.33333 -2.28125,1 -0.59375,0.66667 -0.88541,1.57292 -0.875,2.71875 z"
       fill-rule="nonzero"
       id="path25"
       clip-path="url(#clipPath1196)"
       sodipodi:nodetypes="cscscscccsccccscccscscsccccsccccccccccscsccccsssscccscsssccsccccsccsccscccscccccccccccsccccccccccscsccccsssscccscsssccscccsscsscccsccsccccscsccccsscscccccscssssccsssscsccccccccccccccsscscsccccsccccscccccsccsccscccccssccsccccscssssccsssscsccccsscscsccccsccccsccc"
       transform="matrix(0.5,0,0,0.5,209.59322,149.9712)" />
    <path
       fill="#000000"
       fill-opacity="0"
       d="M 458.8248,282.81693 V -170.4429 h 56.56692 v 453.25983 z"
       fill-rule="evenodd"
       id="path27" />
    <path
       fill="#ffffff"
       d="m 481.8248,283.81693 v -59.59108 h 36.79999 v 59.59108 z"
       fill-rule="nonzero"
       id="path29"
       clip-path="url(#clipPath1192)"
       sodipodi:nodetypes="ccccc"
       style="fill:none"
       transform="matrix(0.5,0,0,0.5,209.59322,149.9712)" />
  </g>
</svg>
