<svg version="1.1" viewBox="0.0 0.0 960.0 540.0" fill="none" stroke="none" stroke-linecap="square" stroke-miterlimit="10" xmlns:xlink="http://www.w3.org/1999/xlink" xmlns="http://www.w3.org/2000/svg"><clipPath id="g2e03c82a1ed_0_0.0"><path d="m0 0l960.0 0l0 540.0l-960.0 0l0 -540.0z" clip-rule="nonzero"/></clipPath><g clip-path="url(#g2e03c82a1ed_0_0.0)"><path fill="#ffffff" d="m0 0l960.0 0l0 540.0l-960.0 0z" fill-rule="evenodd"/><path fill="#000000" fill-opacity="0.0" d="m263.72833 196.34251l720.0 0l0 192.31496l-720.0 0z" fill-rule="evenodd"/><path fill="#ffffff" d="m272.72833 205.34251l166.93286 0l0 36.800003l-166.93286 0l0 -36.800003z" fill-rule="nonzero"/><path fill="#000000" fill-opacity="0.0" d="m272.72833 207.03023l166.93286 0l0 35.251694l-166.93286 0l0 -35.251694z" fill-rule="nonzero"/><path fill="#000000" d="m290.87228 227.64189l4.3125 -0.421875q0.390625 2.171875 1.578125 3.1875q1.1875 1.015625 3.203125 1.015625q2.140625 0 3.21875 -0.90625q1.09375 -0.90625 1.09375 -2.109375q0 -0.78125 -0.453125 -1.328125q-0.453125 -0.546875 -1.59375 -0.953125q-0.78125 -0.265625 -3.546875 -0.953125q-3.5625 -0.890625 -5.0 -2.171875q-2.015625 -1.8125 -2.015625 -4.421875q0 -1.671875 0.9375 -3.125q0.953125 -1.46875 2.734375 -2.21875q1.796875 -0.765625 4.328125 -0.765625q4.140625 0 6.21875 1.8125q2.09375 1.796875 2.203125 4.828125l-4.4375 0.1875q-0.28125 -1.6875 -1.21875 -2.421875q-0.9375 -0.75 -2.8125 -0.75q-1.921875 0 -3.015625 0.796875q-0.703125 0.515625 -0.703125 1.359375q0 0.78125 0.65625 1.34375q0.84375 0.703125 4.0625 1.46875q3.234375 0.75 4.78125 1.578125q1.5625 0.8125 2.4375 2.234375q0.875 1.40625 0.875 3.484375q0 1.890625 -1.046875 3.53125q-1.046875 1.640625 -2.96875 2.453125q-1.921875 0.796875 -4.78125 0.796875q-4.15625 0 -6.390625 -1.921875q-2.21875 -1.921875 -2.65625 -5.609375zm24.681854 -3.90625l-3.8125 -0.6875q0.640625 -2.3125 2.203125 -3.40625q1.578125 -1.109375 4.671875 -1.109375q2.828125 0 4.203125 0.671875q1.375 0.65625 1.9375 1.6875q0.5625 1.015625 0.5625 3.75l-0.046875 4.921875q0 2.09375 0.203125 3.09375q0.203125 0.984375 0.75 2.125l-4.15625 0q-0.171875 -0.421875 -0.40625 -1.25q-0.109375 -0.359375 -0.15625 -0.484375q-1.078125 1.046875 -2.3125 1.578125q-1.21875 0.515625 -2.609375 0.515625q-2.453125 0 -3.875 -1.328125q-1.40625 -1.34375 -1.40625 -3.375q0 -1.34375 0.640625 -2.390625q0.640625 -1.0625 1.796875 -1.625q1.171875 -0.5625 3.359375 -0.984375q2.9375 -0.546875 4.078125 -1.03125l0 -0.421875q0 -1.203125 -0.59375 -1.71875q-0.59375 -0.515625 -2.265625 -0.515625q-1.125 0 -1.75 0.4375q-0.625 0.4375 -1.015625 1.546875zm5.625 3.40625q-0.8125 0.28125 -2.5625 0.65625q-1.75 0.375 -2.28125 0.734375q-0.828125 0.578125 -0.828125 1.46875q0 0.890625 0.65625 1.53125q0.65625 0.640625 1.6875 0.640625q1.125 0 2.15625 -0.75q0.765625 -0.5625 1.015625 -1.390625q0.15625 -0.53125 0.15625 -2.046875l0 -0.84375zm22.73706 7.640625l-4.203125 0l0 -8.109375q0 -2.578125 -0.265625 -3.328125q-0.265625 -0.765625 -0.875 -1.171875q-0.609375 -0.421875 -1.46875 -0.421875q-1.09375 0 -1.96875 0.59375q-0.859375 0.59375 -1.1875 1.59375q-0.3125 0.984375 -0.3125 3.640625l0 7.203125l-4.203125 0l0 -15.890625l3.90625 0l0 2.328125q2.078125 -2.6875 5.234375 -2.6875q1.390625 0 2.546875 0.5q1.15625 0.5 1.75 1.28125q0.59375 0.765625 0.8125 1.765625q0.234375 0.984375 0.234375 2.828125l0 9.875zm12.805847 -21.9375l8.09375 0q2.734375 0 4.171875 0.40625q1.9375 0.578125 3.3125 2.03125q1.375 1.453125 2.09375 3.5625q0.71875 2.09375 0.71875 5.171875q0 2.71875 -0.671875 4.671875q-0.828125 2.390625 -2.34375 3.875q-1.15625 1.125 -3.125 1.75q-1.453125 0.46875 -3.921875 0.46875l-8.328125 0l0 -21.9375zm4.421875 3.703125l0 14.53125l3.3125 0q1.859375 0 2.6875 -0.203125q1.078125 -0.265625 1.78125 -0.90625q0.71875 -0.65625 1.15625 -2.125q0.453125 -1.46875 0.453125 -4.015625q0 -2.546875 -0.453125 -3.90625q-0.4375 -1.359375 -1.25 -2.125q-0.8125 -0.765625 -2.046875 -1.03125q-0.9375 -0.21875 -3.640625 -0.21875l-2.0 0zm17.701447 0.1875l0 -3.890625l4.203125 0l0 3.890625l-4.203125 0zm0 18.046875l0 -15.890625l4.203125 0l0 15.890625l-4.203125 0zm17.720428 -5.0625l4.1875 0.703125q-0.796875 2.3125 -2.546875 3.515625q-1.75 1.203125 -4.359375 1.203125q-4.15625 0 -6.140625 -2.703125q-1.578125 -2.171875 -1.578125 -5.484375q0 -3.953125 2.0625 -6.1875q2.078125 -2.234375 5.234375 -2.234375q3.546875 0 5.59375 2.34375q2.046875 2.328125 1.96875 7.171875l-10.546875 0q0.046875 1.875 1.015625 2.921875q0.984375 1.03125 2.4375 1.03125q0.984375 0 1.65625 -0.53125q0.671875 -0.546875 1.015625 -1.75zm0.234375 -4.25q-0.046875 -1.828125 -0.953125 -2.765625q-0.890625 -0.953125 -2.171875 -0.953125q-1.375 0 -2.28125 1.0q-0.890625 1.0 -0.875 2.71875l6.28125 0zm7.221405 10.359375l4.796875 0.578125q0.125 0.84375 0.5625 1.15625q0.59375 0.453125 1.890625 0.453125q1.640625 0 2.46875 -0.5q0.546875 -0.328125 0.828125 -1.0625q0.203125 -0.515625 0.203125 -1.921875l0 -2.328125q-1.890625 2.578125 -4.765625 2.578125q-3.203125 0 -5.078125 -2.703125q-1.46875 -2.140625 -1.46875 -5.328125q0 -4.0 1.921875 -6.109375q1.9375 -2.109375 4.796875 -2.109375q2.9375 0 4.859375 2.578125l0 -2.21875l3.9375 0l0 14.265625q0 2.8125 -0.46875 4.203125q-0.453125 1.390625 -1.296875 2.171875q-0.84375 0.796875 -2.25 1.25q-1.390625 0.453125 -3.53125 0.453125q-4.046875 0 -5.734375 -1.390625q-1.6875 -1.375 -1.6875 -3.5q0 -0.21875 0.015625 -0.515625zm3.75 -9.328125q0 2.53125 0.984375 3.71875q0.984375 1.171875 2.421875 1.171875q1.546875 0 2.609375 -1.203125q1.0625 -1.21875 1.0625 -3.578125q0 -2.46875 -1.03125 -3.65625q-1.015625 -1.203125 -2.5625 -1.203125q-1.515625 0 -2.5 1.171875q-0.984375 1.171875 -0.984375 3.578125zm14.397949 0.109375q0 -2.09375 1.03125 -4.046875q1.03125 -1.96875 2.921875 -3.0q1.890625 -1.03125 4.234375 -1.03125q3.59375 0 5.90625 2.34375q2.3125 2.328125 2.3125 5.90625q0 3.609375 -2.328125 5.984375q-2.328125 2.375 -5.859375 2.375q-2.1875 0 -4.171875 -0.984375q-1.984375 -0.984375 -3.015625 -2.890625q-1.03125 -1.921875 -1.03125 -4.65625zm4.296875 0.21875q0 2.375 1.125 3.640625q1.125 1.25 2.78125 1.25q1.640625 0 2.75 -1.25q1.125 -1.265625 1.125 -3.671875q0 -2.328125 -1.125 -3.578125q-1.109375 -1.265625 -2.75 -1.265625q-1.65625 0 -2.78125 1.265625q-1.125 1.25 -1.125 3.609375z" fill-rule="nonzero"/><path fill="#000000" fill-opacity="0.0" d="m439.6612 207.03023l0 0l0 35.251694l0 0l0 -35.251694z" fill-rule="nonzero"/><path fill="#000000" fill-opacity="0.0" d="m272.72833 274.23022l0 0l0 35.25171l0 0l0 -35.25171z" fill-rule="nonzero"/><path fill="#000000" fill-opacity="0.0" d="m260.75067 232.50131l314.96063 0l0 56.566925l-314.96063 0z" fill-rule="evenodd"/><path fill="#ffffff" d="m269.75067 241.50131l190.85312 0l0 36.799988l-190.85312 0l0 -36.799988z" fill-rule="nonzero"/><path fill="#000000" fill-opacity="0.0" d="m269.75067 243.18903l190.85312 0l0 35.25168l-190.85312 0l0 -35.25168z" fill-rule="nonzero"/><path fill="#000000" d="m271.96942 249.00381l8.09375 0q2.734375 0 4.171875 0.40625q1.9375 0.578125 3.3125 2.03125q1.375 1.453125 2.09375 3.5625q0.71875 2.09375 0.71875 5.171875q0 2.71875 -0.671875 4.671875q-0.828125 2.390625 -2.34375 3.875q-1.15625 1.125 -3.125 1.75q-1.453125 0.46875 -3.921875 0.46875l-8.328125 0l0 -21.9375zm4.421875 3.703125l0 14.53125l3.3125 0q1.859375 0 2.6875 -0.203125q1.078125 -0.265625 1.78125 -0.90625q0.71875 -0.65625 1.15625 -2.125q0.453125 -1.46875 0.453125 -4.015625q0 -2.546875 -0.453125 -3.90625q-0.4375 -1.359375 -1.25 -2.125q-0.8125 -0.765625 -2.046875 -1.03125q-0.9375 -0.21875 -3.640625 -0.21875l-2.0 0zm20.842072 7.1875l-3.8125 -0.6875q0.640625 -2.3125 2.203125 -3.40625q1.578125 -1.109375 4.671875 -1.109375q2.828125 0 4.203125 0.671875q1.375 0.65625 1.9375 1.6875q0.5625 1.015625 0.5625 3.75l-0.046875 4.921875q0 2.09375 0.203125 3.09375q0.203125 0.984375 0.75 2.125l-4.15625 0q-0.171875 -0.421875 -0.40625 -1.25q-0.109375 -0.359375 -0.15625 -0.484375q-1.078125 1.046875 -2.3125 1.578125q-1.21875 0.515625 -2.609375 0.515625q-2.453125 0 -3.875 -1.328125q-1.40625 -1.34375 -1.40625 -3.375q0 -1.34375 0.640625 -2.390625q0.640625 -1.0625 1.796875 -1.625q1.171875 -0.5625 3.359375 -0.984375q2.9375 -0.546875 4.078125 -1.03125l0 -0.421875q0 -1.203125 -0.59375 -1.71875q-0.59375 -0.515625 -2.265625 -0.515625q-1.125 0 -1.75 0.4375q-0.625 0.4375 -1.015625 1.546875zm5.625 3.40625q-0.8125 0.28125 -2.5625 0.65625q-1.75 0.375 -2.28125 0.734375q-0.828125 0.578125 -0.828125 1.46875q0 0.890625 0.65625 1.53125q0.65625 0.640625 1.6875 0.640625q1.125 0 2.15625 -0.75q0.765625 -0.5625 1.015625 -1.390625q0.15625 -0.53125 0.15625 -2.046875l0 -0.84375zm15.565186 -8.25l0 3.34375l-2.875 0l0 6.40625q0 1.953125 0.078125 2.28125q0.09375 0.3125 0.375 0.53125q0.296875 0.203125 0.71875 0.203125q0.59375 0 1.6875 -0.40625l0.359375 3.265625q-1.453125 0.625 -3.3125 0.625q-1.140625 0 -2.0625 -0.375q-0.90625 -0.390625 -1.34375 -0.984375q-0.421875 -0.609375 -0.578125 -1.65625q-0.140625 -0.734375 -0.140625 -2.953125l0 -6.9375l-1.921875 0l0 -3.34375l1.921875 0l0 -3.171875l4.21875 -2.453125l0 5.625l2.875 0zm6.0681458 4.84375l-3.8125 -0.6875q0.640625 -2.3125 2.203125 -3.40625q1.578125 -1.109375 4.671875 -1.109375q2.828125 0 4.203125 0.671875q1.375 0.65625 1.9375 1.6875q0.5625 1.015625 0.5625 3.75l-0.046875 4.921875q0 2.09375 0.203125 3.09375q0.203125 0.984375 0.75 2.125l-4.15625 0q-0.171875 -0.421875 -0.40625 -1.25q-0.109375 -0.359375 -0.15625 -0.484375q-1.078125 1.046875 -2.3125 1.578125q-1.21875 0.515625 -2.609375 0.515625q-2.453125 0 -3.875 -1.328125q-1.40625 -1.34375 -1.40625 -3.375q0 -1.34375 0.640625 -2.390625q0.640625 -1.0625 1.796875 -1.625q1.171875 -0.5625 3.359375 -0.984375q2.9375 -0.546875 4.078125 -1.03125l0 -0.421875q0 -1.203125 -0.59375 -1.71875q-0.59375 -0.515625 -2.265625 -0.515625q-1.125 0 -1.75 0.4375q-0.625 0.4375 -1.015625 1.546875zm5.625 3.40625q-0.8125 0.28125 -2.5625 0.65625q-1.75 0.375 -2.28125 0.734375q-0.828125 0.578125 -0.828125 1.46875q0 0.890625 0.65625 1.53125q0.65625 0.640625 1.6875 0.640625q1.125 0 2.15625 -0.75q0.765625 -0.5625 1.015625 -1.390625q0.15625 -0.53125 0.15625 -2.046875l0 -0.84375zm15.7074585 0.5l4.3125 -0.421875q0.390625 2.171875 1.578125 3.1875q1.1875 1.015625 3.203125 1.015625q2.140625 0 3.21875 -0.90625q1.09375 -0.90625 1.09375 -2.109375q0 -0.78125 -0.453125 -1.328125q-0.453125 -0.546875 -1.59375 -0.953125q-0.78125 -0.265625 -3.546875 -0.953125q-3.5625 -0.890625 -5.0 -2.171875q-2.015625 -1.8125 -2.015625 -4.421875q0 -1.671875 0.9375 -3.125q0.953125 -1.46875 2.734375 -2.21875q1.796875 -0.765625 4.328125 -0.765625q4.140625 0 6.21875 1.8125q2.09375 1.796875 2.203125 4.828125l-4.4375 0.1875q-0.28125 -1.6875 -1.21875 -2.421875q-0.9375 -0.75 -2.8125 -0.75q-1.921875 0 -3.015625 0.796875q-0.703125 0.515625 -0.703125 1.359375q0 0.78125 0.65625 1.34375q0.84375 0.703125 4.0625 1.46875q3.234375 0.75 4.78125 1.578125q1.5625 0.8125 2.4375 2.234375q0.875 1.40625 0.875 3.484375q0 1.890625 -1.046875 3.53125q-1.046875 1.640625 -2.96875 2.453125q-1.921875 0.796875 -4.78125 0.796875q-4.15625 0 -6.390625 -1.921875q-2.21875 -1.921875 -2.65625 -5.609375zm35.400604 -4.0625l-4.140625 0.75q-0.21875 -1.234375 -0.96875 -1.859375q-0.734375 -0.640625 -1.90625 -0.640625q-1.578125 0 -2.515625 1.09375q-0.9375 1.078125 -0.9375 3.625q0 2.828125 0.953125 4.0q0.953125 1.171875 2.546875 1.171875q1.203125 0 1.96875 -0.6875q0.765625 -0.6875 1.078125 -2.34375l4.125 0.703125q-0.640625 2.84375 -2.46875 4.296875q-1.828125 1.453125 -4.890625 1.453125q-3.484375 0 -5.5625 -2.203125q-2.078125 -2.203125 -2.078125 -6.09375q0 -3.9375 2.078125 -6.125q2.09375 -2.1875 5.640625 -2.1875q2.90625 0 4.609375 1.25q1.71875 1.25 2.46875 3.796875zm3.190155 -6.84375l0 -3.890625l4.203125 0l0 3.890625l-4.203125 0zm0 18.046875l0 -15.890625l4.203125 0l0 15.890625l-4.203125 0zm17.720428 -5.0625l4.1875 0.703125q-0.796875 2.3125 -2.546875 3.515625q-1.75 1.203125 -4.359375 1.203125q-4.15625 0 -6.140625 -2.703125q-1.578125 -2.171875 -1.578125 -5.484375q0 -3.953125 2.0625 -6.1875q2.078125 -2.234375 5.234375 -2.234375q3.546875 0 5.59375 2.34375q2.046875 2.328125 1.96875 7.171875l-10.546875 0q0.046875 1.875 1.015625 2.921875q0.984375 1.03125 2.4375 1.03125q0.984375 0 1.65625 -0.53125q0.671875 -0.546875 1.015625 -1.75zm0.234375 -4.25q-0.046875 -1.828125 -0.953125 -2.765625q-0.890625 -0.953125 -2.171875 -0.953125q-1.375 0 -2.28125 1.0q-0.890625 1.0 -0.875 2.71875l6.28125 0zm22.065155 9.3125l-4.203125 0l0 -8.109375q0 -2.578125 -0.265625 -3.328125q-0.265625 -0.765625 -0.875 -1.171875q-0.609375 -0.421875 -1.46875 -0.421875q-1.09375 0 -1.96875 0.59375q-0.859375 0.59375 -1.1875 1.59375q-0.3125 0.984375 -0.3125 3.640625l0 7.203125l-4.203125 0l0 -15.890625l3.90625 0l0 2.328125q2.078125 -2.6875 5.234375 -2.6875q1.390625 0 2.546875 0.5q1.15625 0.5 1.75 1.28125q0.59375 0.765625 0.8125 1.765625q0.234375 0.984375 0.234375 2.828125l0 9.875zm18.132324 -11.203125l-4.140625 0.75q-0.21875 -1.234375 -0.96875 -1.859375q-0.734375 -0.640625 -1.90625 -0.640625q-1.578125 0 -2.515625 1.09375q-0.9375 1.078125 -0.9375 3.625q0 2.828125 0.953125 4.0q0.953125 1.171875 2.546875 1.171875q1.203125 0 1.96875 -0.6875q0.765625 -0.6875 1.078125 -2.34375l4.125 0.703125q-0.640625 2.84375 -2.46875 4.296875q-1.828125 1.453125 -4.890625 1.453125q-3.484375 0 -5.5625 -2.203125q-2.078125 -2.203125 -2.078125 -6.09375q0 -3.9375 2.078125 -6.125q2.09375 -2.1875 5.640625 -2.1875q2.90625 0 4.609375 1.25q1.71875 1.25 2.46875 3.796875zm12.39328 6.140625l4.1875 0.703125q-0.796875 2.3125 -2.546875 3.515625q-1.75 1.203125 -4.359375 1.203125q-4.15625 0 -6.140625 -2.703125q-1.578125 -2.171875 -1.578125 -5.484375q0 -3.953125 2.0625 -6.1875q2.078125 -2.234375 5.234375 -2.234375q3.546875 0 5.59375 2.34375q2.046875 2.328125 1.96875 7.171875l-10.546875 0q0.046875 1.875 1.015625 2.921875q0.984375 1.03125 2.4375 1.03125q0.984375 0 1.65625 -0.53125q0.671875 -0.546875 1.015625 -1.75zm0.234375 -4.25q-0.046875 -1.828125 -0.953125 -2.765625q-0.890625 -0.953125 -2.171875 -0.953125q-1.375 0 -2.28125 1.0q-0.890625 1.0 -0.875 2.71875l6.28125 0z" fill-rule="nonzero"/><path fill="#000000" fill-opacity="0.0" d="m458.8248 282.81693l0 -453.25983l56.566925 0l0 453.25983z" fill-rule="evenodd"/><path fill="#ffffff" d="m467.8248 273.81693l0 -59.59108l36.799988 0l0 59.59108l-36.799988 0z" fill-rule="nonzero"/><path fill="#000000" fill-opacity="0.0" d="m469.5125 273.81693l0 -59.59108l35.25171 0l0 59.59108l-35.25171 0z" fill-rule="nonzero"/><path fill="#000000" d="m497.2648 271.47318l-21.765625 0l0 -4.4375l18.0625 0l0 -11.015625l3.703125 0l0 15.453125zm0 -18.726059l-21.765625 0l0 -4.4375l18.0625 0l0 -11.015625l3.703125 0l0 15.453125zm-8.0625 -32.647934l1.359375 -4.296875q3.59375 0.984375 5.34375 3.28125q1.734375 2.296875 1.734375 5.828125q0 4.375 -2.984375 7.1875q-2.984375 2.8125 -8.171875 2.8125q-5.46875 0 -8.5 -2.828125q-3.03125 -2.828125 -3.03125 -7.4375q0 -4.03125 2.375 -6.546875q1.40625 -1.5 4.046875 -2.234375l1.046875 4.375q-1.71875 0.390625 -2.703125 1.625q-0.984375 1.234375 -0.984375 3.0q0 2.4375 1.75 3.96875q1.75 1.515625 5.671875 1.515625q4.15625 0 5.9375 -1.5q1.765625 -1.5 1.765625 -3.890625q0 -1.765625 -1.125 -3.03125q-1.125 -1.28125 -3.53125 -1.828125z" fill-rule="nonzero"/><path stroke="#000000" stroke-width="1.0" stroke-linecap="butt" d="m227.3188 198.70341l0 87.38582" fill-rule="nonzero"/><path stroke="#000000" stroke-width="1.0" stroke-linecap="butt" d="m196.22694 242.39633l62.18373 0" fill-rule="nonzero"/><path fill="#000000" d="m211.36626 219.94147l-5.796875 6.8125l11.140625 0l0 3.328125l-15.984375 0l0 -3.03125l5.9375 -7.109375l-5.046875 -5.84375l0 -2.9375l14.5625 0l0 3.328125l-9.546875 0l4.734375 5.453125z" fill-rule="nonzero"/><path fill="#000000" d="m252.20943 230.08209l-20.53125 0l9.859375 -19.3125l0.953125 0l9.71875 19.3125zm-5.1875 -1.125l-6.75 -13.375l-6.796875 13.375l13.546875 0z" fill-rule="nonzero"/><path fill="#000000" d="m221.61626 273.27634l-20.53125 0l9.859375 -19.312515l0.953125 0l9.71875 19.312515zm-5.1875 -1.125l-6.75 -13.375l-6.796875 13.375l13.546875 0z" fill-rule="nonzero"/><path fill="#000000" d="m241.95943 263.1357l-5.796875 6.8125l11.140625 0l0 3.328125l-15.984375 0l0 -3.03125l5.9375 -7.109375l-5.046875 -5.84375l0 -2.9375153l14.5625 0l0 3.3281403l-9.546875 0l4.734375 5.453125z" fill-rule="nonzero"/></g></svg>